@startuml
'https://plantuml.com/class-diagram

class File {
- name : String [1]

+ File (in name : String) : File
+ getName() : String
+ setName(in name : String) : void
+ toString() : String
}

class Folder {
- name : String [1]
- subfolders : Folder [*]
- files : File [*]

+ Folder() : Folder
+ getName() : String
+ setName(in name : String) : void
+ removeSubfolder(in subFolderName: String): void
+ addSubfolder(in subFolderName: String) : void
+ getSubfolder(in subFolderName: String) : Folder
+ removeFile(in file : File) : boolean
+ addFile(in fileName : String) : void
+ toString() : String
+ printFolderContents() : void

}

Folder "1" *-- "*" File
Folder "1" *-- "*" Folder
@enduml